<svg width="636" height="598" viewBox="0 0 636 598" fill="none" xmlns="http://www.w3.org/2000/svg">
<g clip-path="url(#clip0)">
<path opacity="0.18" d="M372.34 589.54C378.79 592.2 385.92 592.59 392.88 592.92C451.627 595.753 510.407 597.113 569.22 597C575.1 597 581.11 596.94 586.62 594.9C592.13 592.86 597.12 588.38 598.09 582.58C561.26 579.72 524.17 580 487.47 578.64C468.23 577.93 448.25 580.34 429.11 582.17C419.41 583.103 409.727 584.197 400.06 585.45C394 586.24 377.75 591.77 372.34 589.54Z" fill="#1D2741"/>
<path d="M487.37 571.45L491.9 582.58L473.6 591.24L456.7 592.47C456.7 592.47 453.81 581.34 461.7 580.35C466.312 579.82 470.711 578.12 474.48 575.41L487.37 571.45Z" fill="#FF573F"/>
<path d="M501.9 576.48C499.606 577.427 497.612 578.977 496.13 580.967C494.647 582.957 493.731 585.311 493.48 587.78L492.99 592.47H513.77V576.47L501.9 576.48Z" fill="#FF573F"/>
<path opacity="0.22" d="M633.9 66.4599V344.34C633.901 348.382 633.106 352.385 631.561 356.12C630.015 359.855 627.749 363.248 624.892 366.108C622.035 368.967 618.642 371.235 614.908 372.783C611.174 374.331 607.172 375.129 603.13 375.13H30.79C22.6256 375.125 14.7971 371.879 9.02403 366.106C3.25094 360.333 0.00529811 352.504 0 344.34H0V66.4599C0.00794252 58.2963 3.25443 50.4694 9.02695 44.6969C14.7995 38.9244 22.6264 35.6779 30.79 35.6699H603.13C611.29 35.6832 619.112 38.932 624.88 44.7039C630.648 50.4759 633.892 58.2998 633.9 66.4599V66.4599Z" fill="url(#paint0_linear)"/>
<path d="M635.4 65.4299V343.3C635.411 347.333 634.627 351.328 633.093 355.058C631.559 358.788 629.306 362.179 626.462 365.039C623.618 367.898 620.238 370.169 616.516 371.722C612.794 373.275 608.803 374.079 604.77 374.09H32.28C28.2379 374.093 24.2349 373.299 20.4995 371.755C16.7641 370.21 13.3694 367.945 10.5094 365.089C7.64933 362.232 5.37989 358.841 3.83062 355.107C2.28135 351.374 1.48261 347.372 1.47998 343.33V343.33V65.4299C1.49056 57.2645 4.73895 49.4365 10.5128 43.6627C16.2866 37.8889 24.1146 34.6405 32.28 34.6299H604.62C612.098 34.6312 619.32 37.3551 624.937 42.2926C630.553 47.23 634.18 54.0434 635.14 61.4599C635.317 62.7758 635.403 64.1022 635.4 65.4299Z" fill="#FE9679"/>
<path d="M635.4 65.4299V343.3C635.411 347.333 634.627 351.328 633.093 355.058C631.559 358.788 629.306 362.179 626.462 365.039C623.618 367.898 620.238 370.169 616.516 371.722C612.794 373.275 608.803 374.079 604.77 374.09H32.28C28.2379 374.093 24.2349 373.299 20.4995 371.755C16.7641 370.21 13.3694 367.945 10.5094 365.089C7.64933 362.232 5.37989 358.841 3.83062 355.107C2.28135 351.374 1.48261 347.372 1.47998 343.33V65.4299C1.49056 57.2645 4.73895 49.4365 10.5128 43.6627C16.2866 37.8889 24.1146 34.6405 32.28 34.6299H604.62C612.098 34.6312 619.32 37.3551 624.937 42.2926C630.553 47.23 634.18 54.0434 635.14 61.4599C635.317 62.7758 635.403 64.1022 635.4 65.4299Z" fill="url(#paint1_linear)"/>
<path d="M633.66 62.4999H0.26001C1.22196 55.0826 4.8509 48.2691 10.4691 43.3318C16.0873 38.3945 23.3106 35.671 30.79 35.6699H603.13C610.61 35.6688 617.834 38.3916 623.453 43.3293C629.072 48.267 632.7 55.0818 633.66 62.4999V62.4999Z" fill="url(#paint2_linear)"/>
<path d="M413.7 279.01H199.44C195.066 279.01 191.52 282.556 191.52 286.93V299.96C191.52 304.334 195.066 307.88 199.44 307.88H413.7C418.074 307.88 421.62 304.334 421.62 299.96V286.93C421.62 282.556 418.074 279.01 413.7 279.01Z" fill="white" stroke="#A0A0A0" stroke-width="0.88" stroke-miterlimit="10"/>
<path d="M210.28 300.12C213.754 300.12 216.57 297.304 216.57 293.83C216.57 290.356 213.754 287.54 210.28 287.54C206.806 287.54 203.99 290.356 203.99 293.83C203.99 297.304 206.806 300.12 210.28 300.12Z" fill="#FE9679"/>
<path d="M229.85 300.12C233.324 300.12 236.14 297.304 236.14 293.83C236.14 290.356 233.324 287.54 229.85 287.54C226.376 287.54 223.56 290.356 223.56 293.83C223.56 297.304 226.376 300.12 229.85 300.12Z" fill="#FE9679"/>
<path d="M249.43 300.12C252.904 300.12 255.72 297.304 255.72 293.83C255.72 290.356 252.904 287.54 249.43 287.54C245.956 287.54 243.14 290.356 243.14 293.83C243.14 297.304 245.956 300.12 249.43 300.12Z" fill="#FE9679"/>
<path d="M269 300.12C272.474 300.12 275.29 297.304 275.29 293.83C275.29 290.356 272.474 287.54 269 287.54C265.526 287.54 262.71 290.356 262.71 293.83C262.71 297.304 265.526 300.12 269 300.12Z" fill="#FE9679"/>
<path d="M437.15 292.11V288.79H439.77V286.65H437.15V285.05H439.77V282.91H434.52V292.11C432.925 292.436 431.508 293.343 430.543 294.654C429.578 295.965 429.135 297.588 429.298 299.208C429.462 300.828 430.221 302.329 431.429 303.421C432.637 304.513 434.207 305.117 435.835 305.117C437.463 305.117 439.033 304.513 440.241 303.421C441.449 302.329 442.208 300.828 442.372 299.208C442.535 297.588 442.092 295.965 441.127 294.654C440.162 293.343 438.745 292.436 437.15 292.11V292.11ZM435.84 303.11C434.936 303.112 434.052 302.846 433.299 302.346C432.547 301.845 431.959 301.133 431.612 300.298C431.264 299.464 431.172 298.545 431.346 297.658C431.52 296.772 431.954 295.956 432.592 295.316C433.229 294.675 434.043 294.238 434.929 294.06C435.815 293.882 436.734 293.97 437.57 294.314C438.405 294.658 439.121 295.242 439.624 295.993C440.128 296.743 440.398 297.626 440.4 298.53V298.53C440.4 299.741 439.92 300.903 439.066 301.762C438.211 302.62 437.051 303.105 435.84 303.11V303.11Z" fill="#FE9679"/>
<path d="M345.64 125.83H280.02C273.525 125.83 268.26 131.095 268.26 137.59V203.21C268.26 209.705 273.525 214.97 280.02 214.97H345.64C352.135 214.97 357.4 209.705 357.4 203.21V137.59C357.4 131.095 352.135 125.83 345.64 125.83Z" fill="url(#paint3_linear)"/>
<path d="M346 125.83H285.11C278.819 125.83 273.72 130.93 273.72 137.22V203.58C273.72 209.871 278.819 214.97 285.11 214.97H346C352.29 214.97 357.39 209.871 357.39 203.58V137.22C357.39 130.93 352.29 125.83 346 125.83Z" fill="#FF9288"/>
<path d="M360.84 170.69L356.24 175.06L354.24 176.94C352.665 175.057 350.665 173.576 348.404 172.618C346.144 171.66 343.689 171.253 341.24 171.43C340.169 171.559 339.084 171.382 338.11 170.92C334.8 169.04 339.99 162.63 339.99 162.63C341.132 162.61 342.274 162.66 343.41 162.78H343.71L344.62 162.89C349 163.51 356 165.58 360.84 170.69Z" fill="white"/>
<path opacity="0.26" d="M356.06 174.65L356.24 175.06L354.24 176.94C352.665 175.057 350.665 173.576 348.404 172.618C346.144 171.66 343.688 171.252 341.24 171.43C340.169 171.559 339.084 171.382 338.11 170.92L339.99 162.63C339.99 162.63 341.84 162.63 343.41 162.78H343.71C344.015 162.796 344.319 162.833 344.62 162.89C344.62 162.89 345.71 167.55 344.9 169.51C344.9 169.54 352.57 170.82 356.06 174.65Z" fill="url(#paint4_linear)"/>
<path d="M314.38 144.62H311.28C308.789 144.62 306.77 146.639 306.77 149.13V191.67C306.77 194.161 308.789 196.18 311.28 196.18H314.38C316.871 196.18 318.89 194.161 318.89 191.67V149.13C318.89 146.639 316.871 144.62 314.38 144.62Z" fill="url(#paint5_linear)"/>
<path d="M341.22 169.7C341.17 175.098 338.992 180.258 335.159 184.059C331.326 187.86 326.148 189.995 320.75 190H316.34C315.537 189.997 314.759 189.724 314.131 189.225C313.503 188.725 313.061 188.029 312.878 187.247C312.694 186.466 312.779 185.646 313.118 184.919C313.458 184.192 314.033 183.6 314.75 183.24C315.246 182.999 315.789 182.872 316.34 182.87H318C319.753 182.87 321.489 182.525 323.109 181.854C324.729 181.183 326.2 180.2 327.44 178.96C328.68 177.72 329.663 176.249 330.334 174.629C331.005 173.009 331.35 171.273 331.35 169.52V169.52V169.23C331.23 165.706 329.74 162.369 327.196 159.927C324.652 157.486 321.256 156.135 317.73 156.16H315.73C314.956 156.16 314.213 155.852 313.665 155.305C313.118 154.757 312.81 154.015 312.81 153.24V153.24V152C312.81 151.226 313.118 150.483 313.665 149.935C314.213 149.388 314.956 149.08 315.73 149.08H320.42C331.73 149.07 341.3 158.35 341.22 169.7Z" fill="white"/>
<path opacity="0.26" d="M335.76 170.52C335.721 175.209 333.834 179.693 330.509 182.999C327.184 186.305 322.689 188.167 318 188.18H314.16C313.82 188.182 313.482 188.128 313.16 188.02C312.952 187.602 312.829 187.148 312.797 186.683C312.765 186.218 312.825 185.751 312.974 185.309C313.122 184.867 313.357 184.458 313.663 184.107C313.97 183.755 314.342 183.467 314.76 183.26C315.256 183.019 315.799 182.892 316.35 182.89H318C319.753 182.89 321.489 182.545 323.109 181.874C324.729 181.203 326.2 180.22 327.44 178.98C328.68 177.74 329.663 176.269 330.334 174.649C331.005 173.029 331.35 171.293 331.35 169.54V169.25C331.23 165.726 329.74 162.389 327.196 159.947C324.652 157.506 321.256 156.155 317.73 156.18H315.73C314.956 156.18 314.213 155.872 313.665 155.325C313.118 154.777 312.81 154.035 312.81 153.26V152.71C313.069 152.627 313.338 152.583 313.61 152.58H317.68C322.451 152.58 327.029 154.466 330.415 157.826C333.802 161.186 335.723 165.749 335.76 170.52Z" fill="url(#paint6_linear)"/>
<path d="M330.69 165.47C330.69 165.47 332.03 169.06 330.36 174.54C330.36 174.54 324.03 181.05 329.43 191.4L333.89 196.17L328.7 201.28C325.469 198.785 322.96 195.475 321.431 191.689C319.902 187.904 319.408 183.779 320 179.74C321.18 170.92 330.69 165.47 330.69 165.47Z" fill="white"/>
<path d="M324.27 205.4L365.37 166.4L399.85 196.17L357.39 236.9L324.27 205.4Z" fill="#FF9288"/>
<path d="M324.27 205.4L327 220.86L357.39 250.02V236.9L324.27 205.4Z" fill="#FE9679"/>
<path d="M399.85 196.17V210.36L357.39 250.02V236.9L399.85 196.17Z" fill="#FE9679"/>
<path d="M324.27 205.4L327 220.86L357.39 250.02V236.9L324.27 205.4Z" fill="url(#paint7_linear)"/>
<path d="M399.85 196.17V210.36L357.39 250.02V236.9L399.85 196.17Z" fill="url(#paint8_linear)"/>
<path d="M331.85 212.61L373.34 173.28L377.17 176.59L335.76 216.33L331.85 212.61Z" fill="url(#paint9_linear)"/>
<path d="M344.1 224L386.58 184.67L390.41 187.97L348.01 227.71L344.1 224Z" fill="url(#paint10_linear)"/>
<path opacity="0.21" d="M462.6 262.72C462.182 268.898 462.518 275.103 463.6 281.2C464.28 284.97 465.19 289.12 463.25 292.44C462.25 294.24 460.45 295.5 458.84 296.83C448.62 305.23 442.71 317.7 433.98 327.64C433.4 328.456 432.561 329.052 431.6 329.33C430.61 329.395 429.628 329.116 428.82 328.54C423.504 325.472 419.036 321.128 415.82 315.9C414.25 313.34 412.82 310.42 410.12 309.11C405.12 306.65 399.06 311.88 398.51 317.45C397.96 323.02 400.95 328.26 403.84 333.05L417.21 355.23C421.28 361.99 425.57 368.98 432.21 373.23C436.807 376.028 441.968 377.77 447.32 378.33C454.9 379.33 462.59 378.83 470.22 378.24C484.167 377.16 498.083 375.773 511.97 374.08C516.73 373.5 522.14 372.46 524.55 368.33C526.17 365.55 525.95 362.12 525.67 358.92C524.69 347.327 523.69 335.737 522.67 324.15C522.12 317.58 521.3 310.44 516.67 305.76C513.9 302.98 510.02 301.4 507.56 298.33C505.801 295.87 504.668 293.017 504.26 290.02C501.89 277.52 504.16 264.09 499.26 252.32C498.26 249.94 496.92 247.58 494.71 246.25C492.681 245.2 490.398 244.74 488.12 244.92C477.17 245.23 463.4 250.45 462.6 262.72Z" fill="url(#paint11_linear)"/>
<path d="M463.69 410.83L451.38 500.49C450.863 504.265 451.258 508.109 452.53 511.7L474.53 576.48L487.39 572.48L477.69 508C477.481 506.664 477.569 505.298 477.95 504L494.64 446.36L501.9 576.36H513.77L524 448.1C527.46 426.66 521.12 410.83 521.12 410.83H463.69Z" fill="#3F3D56"/>
<path d="M526.78 387.09L514.6 308.63L512.9 299.07C512.9 299.07 535.64 312.07 542.16 334.81C550.69 364.66 526.78 387.09 526.78 387.09Z" fill="#FE9679"/>
<path d="M526.78 387.09L514.6 308.63L512.9 299.07C512.9 299.07 535.64 312.07 542.16 334.81C550.69 364.66 526.78 387.09 526.78 387.09Z" fill="url(#paint12_linear)"/>
<path d="M539.28 368.83C548.51 350.58 530.28 318.83 530.28 318.83L514.58 308.64L516.35 297.31C516.35 297.31 541.67 299.9 544.14 335.65C545 347.16 544.1 361.38 539.28 368.83Z" fill="#FF6B45"/>
<path d="M408.83 307.57C407.98 304.69 406.5 301.26 403.5 301C404.306 303.627 404.186 306.451 403.16 309C396.62 306.58 395.1 297 388.57 294.52C387.57 295.58 388.13 297.31 388.75 298.63C389.89 301.09 391.037 303.55 392.19 306.01C390.66 303.6 389.03 301.26 387.3 299.01C386.79 298.32 385.91 297.57 385.19 298.01C384.47 298.45 384.73 299.38 384.99 300.1C386.13 303.3 387.43 306.45 388.86 309.53C387.255 306.835 385.418 304.286 383.37 301.91C382.03 302.24 382.31 304.22 382.89 305.47L387.18 314.61L383.74 309.61C382.63 309.72 382.8 311.42 383.34 312.4C387.95 320.639 395.159 327.119 403.84 330.83C405.6 331.58 407.64 332.2 409.37 331.39C416.81 328 410.27 312.51 408.83 307.57Z" fill="url(#paint13_linear)"/>
<path d="M526.78 331.84V393.36C526.78 400.9 525.55 407.03 518 407.03H465.28C457.76 407.03 457.47 400.96 457.42 393.45L457 351.64C457 351.64 445.62 371.91 436.54 369.94C427.46 367.97 400.54 330.86 400.54 330.86L414 319.6L436.58 342.24C436.58 342.24 440.21 333.99 445.49 315.52C450.77 297.05 467.9 297 467.9 297H513.74C530.29 297 526.78 331.84 526.78 331.84Z" fill="#FF6B45"/>
<path d="M526.78 338.77C526.78 338.77 534.7 349.9 526.78 361.03V338.77Z" fill="#FF573F"/>
<path d="M521.1 406.64H463.69V410.83H521.1V406.64Z" fill="#FE9679"/>
<path d="M521.1 406.64H463.69V410.83H521.1V406.64Z" fill="url(#paint14_linear)"/>
<path d="M499.81 255.16H483.24V297.29H499.81V255.16Z" fill="url(#paint15_linear)"/>
<path d="M499.82 250.54V297.3H491.08V294.45C491.075 292.778 490.408 291.176 489.226 289.994C488.044 288.812 486.442 288.145 484.77 288.14H484.26C480.096 288.14 476.103 286.486 473.158 283.542C470.214 280.597 468.56 276.604 468.56 272.44V272.44V250.54H499.82Z" fill="url(#paint16_linear)"/>
<path d="M468.56 255.16C468.56 255.16 454.06 247.25 459.25 238.59C464.44 229.93 472.9 235.38 472.9 235.38H500.9C500.9 235.38 504.11 234.88 505.35 240.32C506.59 245.76 499.91 279.53 499.91 279.53H486L484.22 270.75C484.22 270.75 486.99 267.75 486.74 264.56C486.763 263.963 486.58 263.376 486.221 262.898C485.862 262.42 485.35 262.081 484.77 261.936C484.19 261.792 483.578 261.852 483.037 262.105C482.496 262.359 482.059 262.792 481.8 263.33C480.55 265.55 481.05 256.15 476.6 255.16C473.955 254.55 471.205 254.55 468.56 255.16V255.16Z" fill="#3F3D56"/>
<path d="M496.11 297.21C496.11 297.21 489.68 305.63 480.77 305.63C471.86 305.63 445.9 331.1 444.16 338.77C442.42 346.44 436.57 342.24 436.57 342.24C436.57 342.24 440.2 333.99 445.48 315.52C450.76 297.05 467.9 297 467.9 297H491.2L496.11 297.21Z" fill="url(#paint17_linear)"/>
<path d="M487.37 571.45L491.9 582.58L473.6 591.24L456.7 592.47C456.7 592.47 453.81 581.34 461.7 580.35C466.312 579.82 470.711 578.12 474.48 575.41L487.37 571.45Z" fill="url(#paint18_linear)"/>
<path d="M501.9 576.48C499.606 577.427 497.612 578.977 496.13 580.967C494.647 582.957 493.731 585.311 493.48 587.78L492.99 592.47H513.77V576.47L501.9 576.48Z" fill="url(#paint19_linear)"/>
</g>
<defs>
<linearGradient id="paint0_linear" x1="0" y1="205.4" x2="633.9" y2="205.4" gradientUnits="userSpaceOnUse">
<stop stop-color="#68E1FD"/>
<stop offset="1" stop-color="#69B9EB"/>
</linearGradient>
<linearGradient id="paint1_linear" x1="-90.39" y1="120.92" x2="874.21" y2="317.8" gradientUnits="userSpaceOnUse">
<stop stop-color="#F9C274"/>
<stop offset="1" stop-color="#FCA88A"/>
</linearGradient>
<linearGradient id="paint2_linear" x1="-54.14" y1="56.8999" x2="1078.7" y2="33.9899" gradientUnits="userSpaceOnUse">
<stop stop-color="#FF7872"/>
<stop offset="0.442708" stop-color="#FF8F85"/>
<stop offset="0.708333" stop-color="#FBB082"/>
<stop offset="0.708433" stop-color="#FFBAA9"/>
<stop offset="0.848958" stop-color="#FF948A"/>
<stop offset="1" stop-color="#FF736E"/>
</linearGradient>
<linearGradient id="paint3_linear" x1="28249.3" y1="30263.4" x2="10720.8" y2="36877.6" gradientUnits="userSpaceOnUse">
<stop stop-color="#FDA287"/>
<stop offset="0.91" stop-color="#FF7470"/>
<stop offset="1" stop-color="#FF7671"/>
</linearGradient>
<linearGradient id="paint4_linear" x1="6743.98" y1="1885.55" x2="6398.75" y2="5623.47" gradientUnits="userSpaceOnUse">
<stop stop-opacity="0"/>
<stop offset="0.91" stop-opacity="0.8"/>
<stop offset="1"/>
</linearGradient>
<linearGradient id="paint5_linear" x1="3942.05" y1="17523.6" x2="5185.21" y2="17524.5" gradientUnits="userSpaceOnUse">
<stop stop-opacity="0"/>
<stop offset="0.91" stop-opacity="0.8"/>
<stop offset="1"/>
</linearGradient>
<linearGradient id="paint6_linear" x1="7881.57" y1="4339.5" x2="6234.97" y2="13419.3" gradientUnits="userSpaceOnUse">
<stop stop-opacity="0"/>
<stop offset="0.91" stop-opacity="0.8"/>
<stop offset="1"/>
</linearGradient>
<linearGradient id="paint7_linear" x1="11352.6" y1="18718.2" x2="13185.1" y2="15079.4" gradientUnits="userSpaceOnUse">
<stop stop-opacity="0"/>
<stop offset="0.91" stop-opacity="0.8"/>
<stop offset="1" stop-color="#FE7872"/>
</linearGradient>
<linearGradient id="paint8_linear" x1="16645.9" y1="22132.1" x2="14984" y2="17563.2" gradientUnits="userSpaceOnUse">
<stop stop-color="#FE7872"/>
<stop offset="0.796875" stop-color="#FE7872"/>
<stop offset="0.91" stop-color="#FE7872"/>
<stop offset="1" stop-color="#FE7872"/>
</linearGradient>
<linearGradient id="paint9_linear" x1="17174.1" y1="14650.2" x2="11801.6" y2="22704.6" gradientUnits="userSpaceOnUse">
<stop stop-opacity="0"/>
<stop offset="0.91" stop-opacity="0.8"/>
<stop offset="1"/>
</linearGradient>
<linearGradient id="paint10_linear" x1="18197.5" y1="15077.8" x2="12872.2" y2="23238.2" gradientUnits="userSpaceOnUse">
<stop stop-color="#673AB7" stop-opacity="0"/>
<stop offset="0.91" stop-color="#673AB7" stop-opacity="0.81"/>
<stop offset="1" stop-color="#673AB7"/>
</linearGradient>
<linearGradient id="paint11_linear" x1="425.17" y1="273.89" x2="675.82" y2="509.88" gradientUnits="userSpaceOnUse">
<stop stop-opacity="0"/>
<stop offset="0.02" stop-color="#030304" stop-opacity="0.04"/>
<stop offset="0.18" stop-color="#181821" stop-opacity="0.39"/>
<stop offset="0.35" stop-color="#292839" stop-opacity="0.66"/>
<stop offset="0.53" stop-color="#363449" stop-opacity="0.85"/>
<stop offset="0.73" stop-color="#3D3B53" stop-opacity="0.96"/>
<stop offset="0.99" stop-color="#3F3D56"/>
</linearGradient>
<linearGradient id="paint12_linear" x1="20520.8" y1="44721.9" x2="13372.3" y2="45467.7" gradientUnits="userSpaceOnUse">
<stop stop-opacity="0"/>
<stop offset="0.91" stop-color="#6D4AAB" stop-opacity="0.8"/>
<stop offset="1" stop-color="#FF573F"/>
</linearGradient>
<linearGradient id="paint13_linear" x1="382.41" y1="313.15" x2="412.86" y2="313.15" gradientUnits="userSpaceOnUse">
<stop stop-color="#ECC4D7"/>
<stop offset="0.42" stop-color="#EFD4D1"/>
<stop offset="1" stop-color="#F2EAC9"/>
</linearGradient>
<linearGradient id="paint14_linear" x1="28725.5" y1="2132.07" x2="28725.6" y2="2077.44" gradientUnits="userSpaceOnUse">
<stop stop-opacity="0"/>
<stop offset="0.91" stop-opacity="0.8"/>
<stop offset="1"/>
</linearGradient>
<linearGradient id="paint15_linear" x1="8543.06" y1="18888.6" x2="8994.05" y2="18885.4" gradientUnits="userSpaceOnUse">
<stop stop-color="#ECC4D7"/>
<stop offset="0.42" stop-color="#EFD4D1"/>
<stop offset="1" stop-color="#F2EAC9"/>
</linearGradient>
<linearGradient id="paint16_linear" x1="18696.3" y1="20914.2" x2="18496.9" y2="20984.6" gradientUnits="userSpaceOnUse">
<stop stop-color="#ECC4D7"/>
<stop offset="0.42" stop-color="#EFD4D1"/>
<stop offset="1" stop-color="#F2EAC9"/>
</linearGradient>
<linearGradient id="paint17_linear" x1="35907.5" y1="23641.5" x2="32028.8" y2="21692.4" gradientUnits="userSpaceOnUse">
<stop stop-color="#FF4B31"/>
<stop offset="1" stop-color="#FF6E59"/>
</linearGradient>
<linearGradient id="paint18_linear" x1="17269.8" y1="-522.28" x2="17322.6" y2="-126.862" gradientUnits="userSpaceOnUse">
<stop stop-color="#FF6B45"/>
<stop offset="0.91" stop-color="#460DAB"/>
<stop offset="1" stop-color="#673AB7"/>
</linearGradient>
<linearGradient id="paint19_linear" x1="10926.4" y1="-317.03" x2="10966.3" y2="-10.3686" gradientUnits="userSpaceOnUse">
<stop stop-color="#FF6B45"/>
<stop offset="0.91" stop-color="#673AB7"/>
<stop offset="1" stop-color="#673AB7"/>
</linearGradient>
<clipPath id="clip0">
<rect width="635.4" height="597.01" fill="white"/>
</clipPath>
</defs>
</svg>
