<svg width="610" height="669" viewBox="0 0 610 669" fill="none" xmlns="http://www.w3.org/2000/svg">
<g clip-path="url(#clip0)">
<path opacity="0.69" d="M467 107.372V554.785C466.995 564.076 463.719 572.985 457.891 579.555C452.064 586.125 444.161 589.818 435.92 589.824H176.19C172.11 589.824 168.07 588.918 164.3 587.158C160.53 585.397 157.105 582.817 154.22 579.565C151.335 576.312 149.046 572.451 147.485 568.201C145.924 563.951 145.12 559.396 145.12 554.796V554.796V107.372C145.119 102.772 145.921 98.2169 147.481 93.9665C149.041 89.7162 151.329 85.8539 154.213 82.6003C157.097 79.3466 160.522 76.7652 164.291 75.0035C168.06 73.2419 172.1 72.3344 176.18 72.3329H435.89C439.974 72.3299 444.018 73.234 447.791 74.9934C451.565 76.7528 454.994 79.3331 457.883 82.5869C460.772 85.8408 463.064 89.7043 464.629 93.957C466.193 98.2097 466.999 102.768 467 107.372V107.372Z" fill="url(#paint0_linear)"/>
<path d="M119.8 609.497L121.33 617.321C111.39 625.449 98.66 627.388 86.7 630.511C74.74 633.634 62.06 639.057 55.89 651.018C64.78 664.006 81.34 665.573 95.89 666.001C213.223 669.451 330.613 669.925 448.06 667.422C485.32 666.621 522.79 665.505 559.36 657.422C561.98 656.847 564.91 655.99 566.22 653.363C568.46 648.854 564.22 643.814 560.35 641.176C547.514 632.508 532.802 628.009 517.84 628.178C512.22 628.256 504.84 627.58 503.55 621.413C503.11 619.159 503.71 616.904 503.64 614.649C503.48 609.012 499.19 604.503 494.48 602.811C489.77 601.12 484.67 601.684 479.74 602.191C386.83 612.27 292.49 604.446 199.27 599.08C184.49 598.223 170.59 607.355 155.91 605.235C142.13 603.274 132.16 600.23 119.8 609.497Z" fill="url(#paint1_linear)"/>
<path d="M456.87 42.3219H153.14C133.799 42.3219 118.12 59.9981 118.12 81.8028V568.494C118.12 590.299 133.799 607.975 153.14 607.975H456.87C476.211 607.975 491.89 590.299 491.89 568.494V81.8028C491.89 59.9981 476.211 42.3219 456.87 42.3219Z" fill="url(#paint2_linear)"/>
<path d="M467 107.372V554.785C466.995 564.076 463.719 572.985 457.891 579.555C452.064 586.125 444.161 589.818 435.92 589.824H176.19C172.11 589.824 168.07 588.918 164.3 587.158C160.53 585.397 157.105 582.817 154.22 579.565C151.335 576.312 149.046 572.451 147.485 568.201C145.924 563.951 145.12 559.396 145.12 554.796V554.796V107.372C145.119 102.772 145.921 98.2169 147.481 93.9665C149.041 89.7162 151.329 85.8539 154.213 82.6003C157.097 79.3466 160.522 76.7652 164.291 75.0035C168.06 73.2419 172.1 72.3344 176.18 72.3329H435.89C439.974 72.3299 444.018 73.234 447.791 74.9934C451.565 76.7528 454.994 79.3331 457.883 82.5869C460.772 85.8408 463.064 89.7043 464.629 93.957C466.193 98.2097 466.999 102.768 467 107.372V107.372Z" fill="url(#paint3_linear)"/>
<path d="M306.382 428.384L112.107 427C104.742 426.956 97.6623 430.213 92.4252 436.055C87.1881 441.898 84.2223 449.848 84.1801 458.158L84.0006 490.451C83.9769 494.569 84.6725 498.653 86.0477 502.468C87.4228 506.282 89.4506 509.754 92.0152 512.685C94.5798 515.616 97.631 517.948 100.995 519.549C104.358 521.149 107.968 521.987 111.619 522.013V522.013L295.859 523.307C308.014 523.414 319.662 528.812 328.374 538.374L333.531 544L333.82 492.24L333.89 479.863L334 459.924C334.039 451.615 331.152 443.628 325.973 437.72C320.794 431.812 313.747 428.466 306.382 428.418V428.384Z" fill="url(#paint4_linear)"/>
<path opacity="0.6" d="M306.57 125.478C307.48 120.968 308.39 116.459 308.03 111.859C304.908 115.472 300.644 117.544 296.17 117.62C295.639 117.551 295.102 117.665 294.63 117.947C294.325 118.27 294.094 118.672 293.957 119.117C293.819 119.563 293.779 120.039 293.84 120.506C293.84 126.041 293.76 131.881 291.25 136.627C288.74 141.374 284.42 144.068 279.91 145.646C269.91 149.232 259.12 147.665 248.77 145.861C246.4 145.444 243.92 144.97 242.04 143.302C239.49 141.047 238.62 137.033 238.96 133.403C239.3 129.773 240.68 126.38 241.96 122.997C243.96 117.642 245.59 111.926 245.06 106.166C244.53 100.405 241.28 94.6212 236.3 93.2006C235.254 92.8415 234.144 92.7908 233.076 93.0533C232.008 93.3158 231.018 93.8828 230.2 94.7001C229.417 95.6858 228.812 96.8347 228.42 98.0822C224.178 109.85 221.431 122.235 220.26 134.869C214.48 134.26 208.97 137.574 203.26 138.476C199.59 139.063 148.86 139.356 145.17 139.074C145.17 139.074 144.65 145.646 146.02 147.766C147.39 149.885 154.83 149.919 157.02 150.855C172.61 157.619 189.76 157.18 206.38 158.893C234.76 161.813 268.87 172.05 293.93 151.396C301.72 144.97 304.49 135.782 306.57 125.478Z" fill="url(#paint5_linear)"/>
<path opacity="0.6" d="M345.73 276.874C346.22 266.13 343.38 255.521 339.54 245.668C335.7 235.815 330.87 226.502 327.05 216.638C326.05 214.146 325.37 210.742 327.31 209.13C327.91 210.821 330.24 210.336 331.4 209.062C332.56 207.788 333.4 205.962 335.01 205.544C337.309 209.732 339.28 214.138 340.9 218.712L352.26 248.024C353.47 251.158 354.74 254.394 357.03 256.626C360.58 260.076 365.8 260.403 370.35 260.279C373.368 260.186 376.376 259.847 379.35 259.264C382.68 258.61 386.45 257.528 388.41 254.326C391.41 249.366 388.55 242.32 390.41 236.671C391.287 234.327 392.702 232.287 394.51 230.764C396.82 228.656 400 227.01 402.7 228.419C404.04 229.265 405.166 230.484 405.97 231.959C412.97 242.962 416.88 256.446 425.35 266.017C430.219 265.959 434.89 263.834 438.43 260.065C441.85 256.401 444.43 251.869 447.1 247.506C451.7 240.02 456.73 232.85 461.76 225.77L467.18 218.092C467.33 217.837 467.547 217.64 467.8 217.529C468.42 217.348 468.8 218.239 468.98 218.949C470.98 229.31 464.92 239.366 458.42 247.01C453.42 252.906 447.69 258.599 444.17 265.578C443.88 266.152 443.693 266.786 443.62 267.443C443.547 268.099 443.59 268.766 443.746 269.404C443.902 270.041 444.168 270.638 444.529 271.16C444.89 271.682 445.339 272.118 445.85 272.443C446.409 272.801 447.03 273.02 447.67 273.086C459.53 274.213 471.67 271.587 483.61 273.221C487.22 273.717 491.45 275.239 492.04 279.535C492.152 280.621 492.029 281.722 491.68 282.743C491.332 283.764 490.769 284.675 490.04 285.397C487.5 288.125 484.04 288.666 480.68 289.129C442.85 294.371 404.68 295.893 366.6 297.302C365.1 297.456 363.587 297.315 362.13 296.885C358.97 295.758 357.13 292.105 355.34 288.993C352.671 284.453 349.434 280.371 345.73 276.874V276.874Z" fill="url(#paint6_linear)"/>
<path d="M312.58 427.334L117.8 425.948C110.415 425.903 103.317 429.166 98.0665 435.02C92.8158 440.874 89.8423 448.84 89.8 457.165L89.62 489.521C89.5963 493.647 90.2937 497.738 91.6724 501.56C93.0511 505.383 95.0842 508.861 97.6555 511.798C100.227 514.734 103.286 517.071 106.658 518.675C110.031 520.278 113.65 521.117 117.31 521.144L302 522.44C314.204 522.533 325.903 527.942 334.65 537.536L339.82 543.173L340.11 491.313L340.18 478.912L340.29 458.935C340.33 450.61 337.435 442.607 332.243 436.688C327.05 430.768 319.985 427.416 312.6 427.368L312.58 427.334Z" fill="url(#paint7_linear)"/>
<path d="M539.85 308.238V336.828C539.868 340.455 539.253 344.051 538.039 347.41C536.825 350.769 535.035 353.826 532.773 356.405C530.511 358.985 527.821 361.037 524.855 362.444C521.89 363.851 518.707 364.586 515.49 364.607H353.87C343.174 364.566 332.891 369.258 325.23 377.673L320.69 382.622V308.215C320.677 302.346 322.315 296.623 325.37 291.87C328.425 287.118 332.739 283.58 337.69 281.767C340.085 280.899 342.585 280.457 345.1 280.459H515.5C518.717 280.48 521.899 281.215 524.864 282.622C527.829 284.029 530.519 286.081 532.78 288.661C535.041 291.241 536.829 294.297 538.042 297.656C539.256 301.015 539.87 304.611 539.85 308.238V308.238Z" fill="url(#paint8_linear)"/>
<path d="M275.81 173.11L280.01 245.578H275.81L271.35 240.741C263.77 232.545 252.23 229.614 241.74 229.614H82.86C76.4948 229.614 70.3903 226.763 65.8894 221.689C61.3885 216.615 58.86 209.733 58.86 202.557L60.35 173.11C60.35 165.934 62.8786 159.052 67.3794 153.977C71.8803 148.903 77.9848 146.052 84.35 146.052H251.85C255.754 146.043 259.601 147.111 263.055 149.165C266.508 151.219 269.463 154.195 271.66 157.834C274.391 162.331 275.838 167.66 275.81 173.11V173.11Z" fill="url(#paint9_linear)"/>
<path d="M280 173.11V245.578L275.53 240.741C267.966 232.544 257.882 227.967 247.39 227.968H88.46C82.0948 227.968 75.9903 225.117 71.4894 220.043C66.9885 214.969 64.46 208.087 64.46 200.911V173.11C64.46 165.934 66.9885 159.051 71.4894 153.977C75.9903 148.903 82.0948 146.052 88.46 146.052H256C259.904 146.044 263.751 147.114 267.204 149.168C270.657 151.221 273.611 154.196 275.81 157.834V157.834C278.554 162.326 280.016 167.655 280 173.11V173.11Z" fill="url(#paint10_linear)"/>
<path d="M539.85 305.915V333.705C539.85 340.881 537.322 347.763 532.821 352.837C528.32 357.912 522.215 360.762 515.85 360.762H357C346.506 360.764 336.419 365.341 328.85 373.536L324.35 378.338V305.915C324.35 298.759 326.865 291.894 331.344 286.823C335.823 281.752 341.902 278.888 348.25 278.858H515.88C522.24 278.867 528.337 281.722 532.831 286.795C537.326 291.868 539.85 298.745 539.85 305.915Z" fill="url(#paint11_linear)"/>
<path d="M364.11 273.356C363.11 271.102 361.51 269.388 360.53 267.201C358.43 262.533 359.66 256.739 362.14 252.319C363.14 250.482 364.44 248.712 364.81 246.581C365.24 244.078 364.38 241.35 365.31 239.028C366.07 237.156 367.79 236.074 369.31 234.879C371.62 233.019 373.62 230.583 376.23 229.343C378.84 228.103 382.46 228.554 383.74 231.418C386.15 230.076 389.2 231.294 391 233.526C392.8 235.758 393.6 238.802 394.15 241.756C394.621 245.145 395.309 248.491 396.21 251.767C397.27 254.98 399.13 258.035 401.88 259.49C407.22 262.308 414.66 258.655 418.88 263.345C421.04 265.769 421.81 270.053 424.74 270.978C426.25 271.451 427.89 270.831 429.39 271.282C431.98 272.071 433.05 275.6 433.11 278.621C433.154 281.583 432.655 284.524 431.645 287.259C430.635 289.994 429.135 292.465 427.24 294.517C425.38 296.513 423 298.373 422.62 301.282C422.58 302.755 422.68 304.229 422.92 305.678C423.063 307.627 422.703 309.581 421.884 311.305C421.065 313.028 419.821 314.448 418.303 315.394C416.785 316.34 415.057 316.771 413.327 316.635C411.596 316.5 409.938 315.803 408.55 314.63C406.43 312.849 404.64 309.861 402 309.996C400.846 310.179 399.748 310.674 398.8 311.439C396.723 313.039 394.425 314.239 392 314.991C390.782 315.353 389.503 315.375 388.275 315.057C387.047 314.739 385.906 314.09 384.95 313.164C383.45 311.507 382.89 309.094 382.16 306.862C380.98 303.255 378.83 299.545 375.48 298.824C374.04 298.52 372.55 298.824 371.11 298.553C361.35 296.783 367.08 280.109 364.11 273.356Z" fill="#3F3D56"/>
<path d="M442.27 235.465C444.699 231.101 446.533 226.351 447.71 221.373C448.223 219.285 449.07 217.321 450.21 215.578C450.322 215.403 450.483 215.275 450.666 215.213C450.85 215.152 451.046 215.16 451.225 215.237C451.404 215.314 451.555 215.456 451.656 215.64C451.756 215.824 451.8 216.04 451.78 216.254L451.38 220.764C453.38 218.148 455.75 213.357 459.1 209.377C459.192 209.275 459.316 209.217 459.445 209.217C459.574 209.217 459.698 209.275 459.79 209.377C459.853 209.453 459.897 209.546 459.917 209.647C459.936 209.749 459.93 209.854 459.9 209.952L457.2 217.585C457.189 217.623 457.185 217.664 457.189 217.704C457.192 217.744 457.202 217.783 457.219 217.819C457.236 217.855 457.258 217.886 457.286 217.912C457.314 217.937 457.346 217.956 457.38 217.968V217.968C457.429 217.985 457.482 217.985 457.532 217.969C457.581 217.953 457.626 217.922 457.66 217.878L461.66 211.801C463.83 210.043 463.58 212.624 463.38 213.233L460.77 218.87C460.74 218.947 460.734 219.034 460.754 219.116C460.774 219.197 460.817 219.269 460.878 219.319C460.938 219.369 461.012 219.394 461.087 219.39C461.162 219.386 461.234 219.354 461.29 219.298C462.429 218.036 463.642 216.861 464.92 215.781C465.077 215.662 465.265 215.606 465.453 215.623C465.642 215.639 465.82 215.727 465.959 215.872C466.098 216.017 466.189 216.21 466.218 216.421C466.248 216.631 466.213 216.847 466.12 217.032L462.12 223.334C461.64 224.09 461.23 224.529 462.05 224.462L464.93 223.267C465.79 222.883 465.38 225.104 464.63 225.702C460.44 229.084 458.74 231.722 455.84 234.529C452.94 237.337 434.33 271.936 425.84 284.202C422.75 288.655 416.84 291.62 414.45 284.45C412.66 279.016 418.15 273.931 420.79 269.997C428.363 258.851 435.523 247.34 442.27 235.465Z" fill="url(#paint12_linear)"/>
<path d="M278.29 57.2372H341.71C342.506 57.2372 343.269 57.5935 343.831 58.2278C344.394 58.8621 344.71 59.7223 344.71 60.6193V60.6193C344.71 61.5163 344.394 62.3766 343.831 63.0109C343.269 63.6451 342.506 64.0015 341.71 64.0015H278.29C277.494 64.0015 276.731 63.6451 276.169 63.0109C275.606 62.3766 275.29 61.5163 275.29 60.6193V60.6193C275.29 59.7223 275.606 58.8621 276.169 58.2278C276.731 57.5935 277.494 57.2372 278.29 57.2372V57.2372Z" fill="url(#paint13_linear)"/>
<path d="M277.83 174.891C272.55 177.461 271.62 177.055 265.97 178.172C260.32 179.288 255.9 178.476 250.52 176.21C246.83 188.904 242.91 202.771 241.91 216.074C241.581 220.078 241.009 224.052 240.2 227.968H206.2C206.1 227.111 206.01 226.232 205.93 225.319C205.033 213.07 205.157 200.754 206.3 188.532C206.392 187.784 206.449 187.032 206.47 186.277C206.495 185.662 206.455 185.045 206.35 184.44C206.058 183.139 205.579 181.901 204.93 180.776C203.58 178.104 200.32 174.012 198.51 171.046C198.27 170.641 198.05 170.257 197.87 169.919C198.96 164.282 203.77 161.52 206.01 156.391C207.671 152.467 210.03 148.971 212.94 146.12C213.878 145.229 214.882 144.429 215.94 143.73C219.78 141.216 224.21 140.213 228.63 139.457C229.32 139.333 230 139.22 230.69 139.119C233.523 141.452 236.897 142.807 240.4 143.02C241.504 142.993 242.606 143.125 243.68 143.414C244.589 143.805 245.44 144.353 246.2 145.038L247.54 146.165C250 148.138 252.46 150.134 254.92 152.118C256.626 153.58 258.443 154.871 260.35 155.973C266.52 159.265 269.07 158.961 275.85 157.991C276.64 162.805 277.44 169.919 277.83 174.891Z" fill="#FF6B45"/>
<path d="M228.58 139.13C226.81 140.968 231.96 147.315 233.83 149.029C235.7 150.742 238.54 150.731 240.91 149.942C242.49 149.423 244.17 148.42 244.6 146.616C244.743 145.332 244.637 144.028 244.29 142.794C243.86 140.145 244.29 137.36 243.65 134.745C242.934 132.105 241.478 129.799 239.5 128.172C237.65 126.537 232.66 122.197 231.63 126.537C230.51 131.16 232.72 134.801 228.58 139.13Z" fill="url(#paint14_linear)"/>
<path d="M228.18 227.968H207.18C206.792 227.06 206.361 226.176 205.89 225.319C205.79 225.143 205.673 224.98 205.54 224.834C204.619 223.74 203.979 222.383 203.69 220.911C200.991 210.409 201.43 199.198 204.94 189.006C205.261 187.981 205.768 187.044 206.43 186.255C207.51 184.958 208.73 184.327 209.88 181.937C212.15 177.236 216.48 169.22 218.62 164.451C219.47 173.707 216.28 182.286 216.62 191.576C216.79 196.988 216.97 202.489 218.62 207.585C219.988 211.791 222.152 215.611 224.96 218.78C226 220.121 227.63 224.552 228.18 227.968Z" fill="url(#paint15_linear)"/>
<path d="M275.81 157.912C275.81 157.912 277.58 172.467 277.51 171.633C277.44 170.798 302.76 163.019 309.99 135.996C310.543 135.097 311.218 134.302 311.99 133.64C320.99 126.064 322.39 122.873 319.7 124.734C318.308 125.811 316.62 126.295 314.94 126.098C315.932 125.157 316.852 124.124 317.69 123.009C318.75 121.554 321.07 120.055 321.64 118.296C321.723 118.1 321.757 117.882 321.74 117.665C321.687 117.463 321.573 117.288 321.418 117.17C321.263 117.053 321.076 117.001 320.89 117.022C320.53 117.081 320.187 117.236 319.89 117.473C318.534 118.429 317.234 119.483 316 120.63C315.23 121.34 313.11 122.298 313.84 120.63C314.98 117.981 317.51 116.222 318.18 113.381C318.236 113.223 318.26 113.052 318.25 112.883C318.24 112.713 318.195 112.548 318.12 112.4C317.86 112.039 317.34 112.152 316.96 112.4C315.59 113.099 311.46 119.491 310.45 119.345C309.44 119.198 311.54 112.513 311.62 111.228C311.62 110.878 311.62 110.461 311.35 110.292C311.204 110.231 311.044 110.223 310.893 110.27C310.743 110.316 310.609 110.415 310.51 110.551C307.87 113.009 307.51 117.315 305.81 120.698C305.584 121.269 305.172 121.72 304.66 121.96C303.57 122.321 302.66 120.923 301.55 120.641C301.353 120.562 301.137 120.562 300.94 120.641C300.33 120.946 300.42 122.017 300.79 122.648C305.79 131.239 293.06 151.903 275.81 157.912Z" fill="url(#paint16_linear)"/>
<path d="M201.35 172.636C201.35 172.636 196.1 220.279 200.12 227.968H208.85C207.061 212.659 207.399 197.129 209.85 181.937C209.85 181.937 209.08 174.44 201.35 172.636Z" fill="url(#paint17_linear)"/>
<path opacity="0.32" d="M174.27 169.874H82.57C79.4661 169.874 76.95 172.711 76.95 176.21V176.221C76.95 179.72 79.4661 182.557 82.57 182.557H174.27C177.374 182.557 179.89 179.72 179.89 176.221V176.21C179.89 172.711 177.374 169.874 174.27 169.874Z" fill="#FEE4D4"/>
<path opacity="0.32" d="M174.27 195.838H82.57C79.4661 195.838 76.95 198.674 76.95 202.174V202.185C76.95 205.684 79.4661 208.521 82.57 208.521H174.27C177.374 208.521 179.89 205.684 179.89 202.185V202.174C179.89 198.674 177.374 195.838 174.27 195.838Z" fill="#FCDAB9"/>
<path opacity="0.32" d="M519 310.695H427.3C425.808 310.695 424.378 310.028 423.322 308.84C422.267 307.652 421.673 306.041 421.67 304.359V304.359C421.67 303.527 421.815 302.703 422.098 301.935C422.38 301.166 422.794 300.468 423.316 299.879C423.838 299.291 424.457 298.824 425.139 298.506C425.821 298.187 426.552 298.024 427.29 298.024H519C519.738 298.024 520.469 298.187 521.151 298.506C521.832 298.824 522.452 299.291 522.974 299.879C523.496 300.468 523.91 301.166 524.192 301.935C524.475 302.703 524.62 303.527 524.62 304.359V304.359C524.62 306.04 524.028 307.651 522.974 308.84C521.92 310.028 520.49 310.695 519 310.695Z" fill="#FBC094"/>
<path opacity="0.32" d="M519 336.659H427.3C425.808 336.659 424.378 335.992 423.322 334.804C422.267 333.616 421.673 332.005 421.67 330.323V330.323C421.673 329.493 421.82 328.671 422.105 327.904C422.389 327.138 422.804 326.443 423.327 325.858C423.85 325.272 424.47 324.809 425.152 324.494C425.833 324.179 426.563 324.018 427.3 324.021H519C520.49 324.021 521.92 324.689 522.974 325.877C524.028 327.065 524.62 328.677 524.62 330.357V330.357C524.609 332.031 524.013 333.632 522.96 334.812C521.908 335.992 520.484 336.656 519 336.659V336.659Z" fill="#FBBB8B"/>
<path opacity="0.32" d="M257.92 459H126.094C123.95 459 121.893 458.369 120.376 457.245C118.858 456.121 118.004 454.596 118 453.005V453.005C118 451.413 118.853 449.885 120.371 448.759C121.889 447.633 123.948 447 126.094 447H257.92C260.063 447 262.118 447.632 263.633 448.756C265.149 449.88 266 451.405 266 452.995C266.002 453.782 265.795 454.562 265.39 455.29C264.986 456.017 264.392 456.679 263.644 457.237C262.895 457.794 262.005 458.237 261.025 458.54C260.046 458.842 258.995 458.999 257.934 459H257.92Z" fill="#FFD7AE"/>
<path opacity="0.32" d="M257.92 476H126.08C121.618 476 118 478.684 118 481.995V482.005C118 485.316 121.618 488 126.08 488H257.92C262.382 488 266 485.316 266 482.005V481.995C266 478.684 262.382 476 257.92 476Z" fill="#FFCEAF"/>
<path d="M421.35 288.903C420.681 291.033 419.55 292.94 418.06 294.45C415.27 297.325 411.73 299.128 408.98 302.048C402.88 308.519 401.87 318.858 401.23 328.271L399 360.762H357C353.989 360.765 350.987 361.143 348.05 361.89C348.59 353.171 349.057 344.453 349.45 335.734C350.19 319.354 350.22 301.338 340.96 288.678C339.999 287.649 339.337 286.317 339.06 284.856C338.94 283.176 339.95 281.688 340.9 280.346C340.96 280.279 341 280.211 341.06 280.132L347.24 271.62C347.553 271.051 347.964 270.559 348.448 270.172C348.932 269.784 349.48 269.51 350.06 269.365C351.078 269.438 352.033 269.946 352.73 270.786C355.11 273.229 357.28 275.92 359.21 278.824C360.48 280.628 361.72 282.454 363.04 284.213C369.27 292.511 378.78 298.35 387.76 291.699C393.928 286.988 400.354 282.722 407 278.926C410.097 277.233 413.271 275.727 416.51 274.416C416.32 276.164 417.15 277.584 418.18 278.926C419.287 280.197 420.26 281.608 421.08 283.131C421.459 284.026 421.679 284.996 421.725 285.987C421.771 286.977 421.644 287.968 421.35 288.903V288.903Z" fill="#FF6B45"/>
<path d="M348.11 279.76C350.041 275.884 350.679 271.358 349.91 266.998C349.14 262.683 347.911 258.489 346.25 254.507L335.71 226.322C334.762 224.024 334.028 221.621 333.52 219.152C332.79 214.935 333.38 210.584 333.97 206.345C333.302 206.129 332.587 206.21 331.97 206.57C332.064 207.711 331.854 208.857 331.366 209.862C330.877 210.866 330.134 211.683 329.23 212.207C328.302 207.971 326.599 204 324.23 200.55C324.49 203.699 324.683 206.856 324.81 210.02C322.61 207.472 320.403 204.932 318.19 202.399C316.48 205.781 322.63 209.377 321.19 212.94L313.93 207.044C313.4 211.057 319.16 212.951 319.47 217.01L314.26 214.27C315.36 217.303 317.91 219.276 319.93 221.643C327.35 230.448 327.35 244.078 331.99 255.025C334.65 261.327 337.5 266.479 338.7 273.368C339.6 278.542 343.55 288.024 348.11 279.76Z" fill="url(#paint18_linear)"/>
<path d="M190.72 342.916C195.066 342.916 198.59 338.944 198.59 334.043C198.59 329.143 195.066 325.171 190.72 325.171C186.373 325.171 182.85 329.143 182.85 334.043C182.85 338.944 186.373 342.916 190.72 342.916Z" fill="#FEECEC"/>
<path d="M214.91 342.916C219.257 342.916 222.78 338.944 222.78 334.043C222.78 329.143 219.257 325.171 214.91 325.171C210.564 325.171 207.04 329.143 207.04 334.043C207.04 338.944 210.564 342.916 214.91 342.916Z" fill="#FEECEC"/>
<path d="M239.1 342.916C243.446 342.916 246.97 338.944 246.97 334.043C246.97 329.143 243.446 325.171 239.1 325.171C234.754 325.171 231.23 329.143 231.23 334.043C231.23 338.944 234.754 342.916 239.1 342.916Z" fill="#FEECEC"/>
<path d="M384.24 493.444C388.587 493.444 392.11 489.472 392.11 484.572C392.11 479.671 388.587 475.699 384.24 475.699C379.894 475.699 376.37 479.671 376.37 484.572C376.37 489.472 379.894 493.444 384.24 493.444Z" fill="#FEECEC"/>
<path d="M408.42 493.444C412.767 493.444 416.29 489.472 416.29 484.572C416.29 479.671 412.767 475.699 408.42 475.699C404.074 475.699 400.55 479.671 400.55 484.572C400.55 489.472 404.074 493.444 408.42 493.444Z" fill="#FEECEC"/>
<path d="M432.6 493.444C436.946 493.444 440.47 489.472 440.47 484.572C440.47 479.671 436.946 475.699 432.6 475.699C428.253 475.699 424.73 479.671 424.73 484.572C424.73 489.472 428.253 493.444 432.6 493.444Z" fill="#FEECEC"/>
<path d="M352.18 191.418C356.527 191.418 360.05 187.446 360.05 182.546C360.05 177.646 356.527 173.673 352.18 173.673C347.834 173.673 344.31 177.646 344.31 182.546C344.31 187.446 347.834 191.418 352.18 191.418Z" fill="#FEECEC"/>
<path d="M376.37 191.418C380.716 191.418 384.24 187.446 384.24 182.546C384.24 177.646 380.716 173.673 376.37 173.673C372.024 173.673 368.5 177.646 368.5 182.546C368.5 187.446 372.024 191.418 376.37 191.418Z" fill="#FEECEC"/>
<path d="M400.55 191.418C404.896 191.418 408.42 187.446 408.42 182.546C408.42 177.646 404.896 173.673 400.55 173.673C396.203 173.673 392.68 177.646 392.68 182.546C392.68 187.446 396.203 191.418 400.55 191.418Z" fill="#FEECEC"/>
<path d="M258.84 126.03C257.76 130.269 255.98 134.44 252.97 137.304C250.907 139.246 248.378 140.452 245.704 140.769C243.031 141.086 240.335 140.5 237.958 139.084C235.582 137.669 233.632 135.489 232.357 132.821C231.083 130.153 230.541 127.118 230.8 124.102C230.8 123.753 230.8 123.324 230.58 123.121C230.347 123.031 230.093 123.031 229.86 123.121C228.39 123.291 227.3 121.577 226.86 119.999C226.46 118.805 226.36 117.51 226.57 116.256C226.683 115.635 226.939 115.059 227.314 114.585C227.688 114.112 228.166 113.759 228.7 113.561C229.242 113.391 229.822 113.463 230.318 113.764C230.814 114.064 231.187 114.569 231.36 115.173C231.567 112.827 232.252 110.566 233.36 108.567C234.482 105.962 235.998 103.596 237.84 101.577C239.814 99.7011 242.206 98.4698 244.757 98.0167C247.308 97.5636 249.92 97.906 252.31 99.0067C254.434 99.9958 256.345 101.485 257.916 103.375C259.487 105.265 260.682 107.512 261.42 109.965C262 112.22 261.15 114.17 260.76 116.368C260.11 119.503 259.66 122.885 258.84 126.03Z" fill="url(#paint19_linear)"/>
<path d="M232.06 117.304C232 117.395 231.924 117.47 231.836 117.524C231.748 117.579 231.65 117.611 231.55 117.62C231.16 117.62 231.06 117.011 231.03 116.583C231.039 115.525 230.68 114.505 230.03 113.742C229.869 113.56 229.678 113.416 229.468 113.317C229.258 113.219 229.033 113.168 228.805 113.168C228.577 113.168 228.352 113.219 228.142 113.317C227.932 113.416 227.741 113.56 227.58 113.742V113.742C226.922 108.785 227.858 103.726 230.22 99.4802C230.511 99.0735 230.7 98.5872 230.77 98.0709C230.77 97.4058 230.43 96.7519 230.54 96.098C230.668 95.624 230.923 95.2064 231.27 94.903C232.32 93.6783 233.592 92.7245 235 92.1071C235.694 91.8016 236.444 91.6912 237.184 91.7855C237.925 91.8798 238.634 92.1759 239.25 92.6482C242.437 90.5293 246.061 89.3903 249.76 89.345C251.909 89.2921 254.047 89.7015 256.06 90.5513C259.688 92.25 262.623 95.4139 264.29 99.4238C265.919 103.43 266.512 107.873 266 112.242C262.753 113.897 259.06 114.05 255.714 112.667C252.369 111.284 249.638 108.476 248.11 104.847C247.82 106.614 247.99 108.439 248.6 110.1C247.381 109.42 246.32 108.43 245.501 107.206C244.681 105.983 244.127 104.561 243.88 103.054C243.13 102.265 241.99 103.268 241.37 104.181C239.77 106.56 238.29 109.356 236.37 111.397C235.505 112.123 234.711 112.951 234 113.866C233.23 114.925 232.91 116.289 232.06 117.304Z" fill="#3F3D56"/>
<path d="M386.4 292.161C386.05 295.307 383.45 298.012 380.62 298.779C379.903 298.992 379.158 299.061 378.42 298.982C374.42 298.52 372.6 292.95 372.68 288.407C372.76 283.864 373.68 279.23 371.84 275.363C371.84 275.239 371.73 275.115 371.67 274.991C370.67 272.996 368.92 271.508 368.03 269.422C367.211 267.065 367.03 264.488 367.51 262.015C368.7 252.59 375.25 227.686 387.87 237.01C391.14 239.422 393.09 243.594 394.21 247.81C398.17 262.68 389.71 262.421 386.4 292.161Z" fill="url(#paint20_linear)"/>
<path d="M382.87 240.054C384.56 241.181 385.4 243.436 385.78 245.69C386.87 251.947 385.1 258.328 384.11 264.608C383.12 270.888 383.11 278.137 387.02 282.759L387.11 282.872C388.597 284.577 390.624 285.546 392.744 285.568C394.865 285.589 396.907 284.66 398.42 282.984C399.179 282.152 399.782 281.155 400.19 280.053C400.38 279.568 400.6 279.095 400.83 278.633C402.35 275.6 404.47 272.996 405.98 269.952C407.209 267.392 408.06 264.624 408.5 261.756C409.057 258.833 409.074 255.813 408.55 252.883C407.55 247.968 404.55 243.864 401.41 240.358C398.27 236.852 395.08 233.898 391.11 232.342C387.14 230.786 382.4 231.035 379.11 233.954C378.11 234.856 375.36 238.464 376.79 240.042C378 241.26 381.1 238.836 382.87 240.054Z" fill="#3F3D56"/>
<path d="M202.38 172.636L197.81 169.874L201.12 174.959L201.34 172.636H202.38Z" fill="url(#paint21_linear)"/>
<path d="M250.52 176.21C250.663 174.916 251.235 173.731 252.122 172.894C253.009 172.057 254.145 171.63 255.3 171.7C259.78 171.554 277.16 168.972 277.16 168.972L277.83 174.925C277.83 174.925 262.46 182.253 250.52 176.21Z" fill="url(#paint22_linear)"/>
<path opacity="0.18" d="M275.81 157.913V160.551C275.81 160.551 260.62 165.162 244.59 146.56L243.59 143.369C244.5 143.76 245.35 144.308 246.11 144.993L247.45 146.12L254.83 152.073C256.536 153.535 258.353 154.826 260.26 155.928C266.43 159.22 268.98 158.916 275.76 157.946L275.81 157.913Z" fill="white"/>
<path opacity="0.18" d="M229.41 143.381C229.41 143.381 213.62 142.512 206.12 162.805C204.51 167.134 200.55 171.554 200.55 171.554L198.47 171.058C198.23 170.652 198.01 170.269 197.83 169.93C198.92 164.293 203.73 161.531 205.97 156.402C207.631 152.479 209.99 148.983 212.9 146.131C213.838 145.24 214.842 144.441 215.9 143.741C219.74 141.227 224.17 140.224 228.59 139.469L229.41 143.381Z" fill="white"/>
<path d="M421.35 288.903C420.681 291.033 419.55 292.94 418.06 294.45C415.27 297.325 411.73 299.128 408.98 302.048C402.88 308.519 401.87 318.858 401.23 328.271L399 360.762H367.27C367.27 360.762 384.56 321.169 389.27 310.684C393.98 300.199 408.38 293.3 408.38 293.3C419.6 283.492 421.35 288.903 421.35 288.903Z" fill="url(#paint23_linear)"/>
<path d="M381.12 298.226C380.979 298.438 380.81 298.624 380.62 298.779C379.903 298.992 379.158 299.061 378.42 298.982C374.42 298.52 372.6 292.95 372.68 288.407C372.76 283.864 374.25 279.478 370.91 273.751C372.66 275.183 374.98 276.073 380.06 276.445C383.73 276.671 381.53 297.629 381.12 298.226Z" fill="url(#paint24_linear)"/>
</g>
<defs>
<linearGradient id="paint0_linear" x1="308.56" y1="913.135" x2="303.095" y2="-89.2823" gradientUnits="userSpaceOnUse">
<stop offset="0.02" stop-color="white" stop-opacity="0"/>
<stop offset="0.58" stop-color="white" stop-opacity="0.39"/>
<stop offset="0.68" stop-color="white" stop-opacity="0.68"/>
<stop offset="1" stop-color="white"/>
</linearGradient>
<linearGradient id="paint1_linear" x1="316.53" y1="732.291" x2="293.658" y2="448.277" gradientUnits="userSpaceOnUse">
<stop stop-opacity="0"/>
<stop offset="0.49" stop-opacity="0.2"/>
<stop offset="0.52" stop-opacity="0.23"/>
<stop offset="0.99"/>
</linearGradient>
<linearGradient id="paint2_linear" x1="305" y1="42" x2="305" y2="640" gradientUnits="userSpaceOnUse">
<stop stop-color="#FF706C"/>
<stop offset="1" stop-color="#FF5A55"/>
</linearGradient>
<linearGradient id="paint3_linear" x1="306.06" y1="72.3329" x2="306.06" y2="589.824" gradientUnits="userSpaceOnUse">
<stop stop-color="#FCBB95"/>
<stop offset="1" stop-color="#FE8E7C"/>
</linearGradient>
<linearGradient id="paint4_linear" x1="76676.1" y1="62746" x2="77408.3" y2="82944.2" gradientUnits="userSpaceOnUse">
<stop offset="0.01" stop-color="#E6795C"/>
<stop offset="1" stop-opacity="0"/>
</linearGradient>
<linearGradient id="paint5_linear" x1="226.35" y1="86.4927" x2="229.578" y2="574.047" gradientUnits="userSpaceOnUse">
<stop stop-opacity="0"/>
<stop offset="0.99"/>
</linearGradient>
<linearGradient id="paint6_linear" x1="68643.4" y1="38961.9" x2="67053.1" y2="-13498.1" gradientUnits="userSpaceOnUse">
<stop stop-opacity="0"/>
<stop offset="0.99" stop-color="#FF827C"/>
</linearGradient>
<linearGradient id="paint7_linear" x1="-86" y1="386" x2="384" y2="485" gradientUnits="userSpaceOnUse">
<stop stop-color="#F9C474"/>
<stop offset="1" stop-color="#FE9679"/>
</linearGradient>
<linearGradient id="paint8_linear" x1="117773" y1="38884.2" x2="117224" y2="56561.5" gradientUnits="userSpaceOnUse">
<stop offset="0.01" stop-color="#E6795C"/>
<stop offset="1" stop-color="#E6795C"/>
</linearGradient>
<linearGradient id="paint9_linear" x1="58357.3" y1="26402.9" x2="58756.9" y2="42463.6" gradientUnits="userSpaceOnUse">
<stop offset="0.01" stop-color="#E6795C"/>
<stop offset="1" stop-opacity="0"/>
</linearGradient>
<linearGradient id="paint10_linear" x1="203" y1="246" x2="83" y2="110" gradientUnits="userSpaceOnUse">
<stop stop-color="#FE9679"/>
<stop offset="1" stop-color="#F8CF73"/>
</linearGradient>
<linearGradient id="paint11_linear" x1="540" y1="223" x2="459" y2="361" gradientUnits="userSpaceOnUse">
<stop stop-color="#F9C574"/>
<stop offset="1" stop-color="#FE9679"/>
</linearGradient>
<linearGradient id="paint12_linear" x1="414.1" y1="249.005" x2="466.23" y2="249.005" gradientUnits="userSpaceOnUse">
<stop stop-color="#ECC4D7"/>
<stop offset="0.42" stop-color="#EFD4D1"/>
<stop offset="1" stop-color="#F2EAC9"/>
</linearGradient>
<linearGradient id="paint13_linear" x1="21794.8" y1="3861.55" x2="21794.8" y2="3221.58" gradientUnits="userSpaceOnUse">
<stop stop-color="#FDFBFF"/>
<stop offset="0.177083" stop-color="white"/>
<stop offset="0.99" stop-color="#FFF8E5"/>
</linearGradient>
<linearGradient id="paint14_linear" x1="5681.03" y1="7726.35" x2="5943.97" y2="7834.23" gradientUnits="userSpaceOnUse">
<stop stop-color="#ECC4D7"/>
<stop offset="0.42" stop-color="#EFD4D1"/>
<stop offset="1" stop-color="#F2EAC9"/>
</linearGradient>
<linearGradient id="paint15_linear" x1="6103.61" y1="26985.7" x2="3988.59" y2="26809.1" gradientUnits="userSpaceOnUse">
<stop stop-opacity="0"/>
<stop offset="0.99" stop-color="#FF573F"/>
</linearGradient>
<linearGradient id="paint16_linear" x1="17568.3" y1="18574.7" x2="19678" y2="18574.7" gradientUnits="userSpaceOnUse">
<stop stop-color="#ECC4D7"/>
<stop offset="0.42" stop-color="#EFD4D1"/>
<stop offset="1" stop-color="#F2EAC9"/>
</linearGradient>
<linearGradient id="paint17_linear" x1="3563.79" y1="19719.2" x2="3690.53" y2="19719.2" gradientUnits="userSpaceOnUse">
<stop stop-color="#ECC4D7"/>
<stop offset="0.42" stop-color="#EFD4D1"/>
<stop offset="1" stop-color="#F2EAC9"/>
</linearGradient>
<linearGradient id="paint18_linear" x1="15375.4" y1="32364.9" x2="16695.3" y2="32364.9" gradientUnits="userSpaceOnUse">
<stop stop-color="#ECC4D7"/>
<stop offset="0.42" stop-color="#EFD4D1"/>
<stop offset="1" stop-color="#F2EAC9"/>
</linearGradient>
<linearGradient id="paint19_linear" x1="242.67" y1="105.354" x2="248.701" y2="137.259" gradientUnits="userSpaceOnUse">
<stop offset="0.2" stop-color="#ECC4D7"/>
<stop offset="0.37" stop-color="#F0DCCE"/>
<stop offset="1" stop-color="#F2EAC9"/>
</linearGradient>
<linearGradient id="paint20_linear" x1="13466.9" y1="26653.1" x2="14250.5" y2="26653.1" gradientUnits="userSpaceOnUse">
<stop stop-color="#ECC4D7"/>
<stop offset="0.42" stop-color="#EFD4D1"/>
<stop offset="1" stop-color="#F2EAC9"/>
</linearGradient>
<linearGradient id="paint21_linear" x1="201.96" y1="171.362" x2="198.693" y2="172.456" gradientUnits="userSpaceOnUse">
<stop stop-color="#68E1FD"/>
<stop offset="0.2" stop-color="#5DB4CF"/>
<stop offset="0.46" stop-color="#50819B"/>
<stop offset="0.69" stop-color="#475C76"/>
<stop offset="0.87" stop-color="#41455E"/>
<stop offset="0.99" stop-color="#3F3D56"/>
</linearGradient>
<linearGradient id="paint22_linear" x1="10159" y1="3093.65" x2="10117.4" y2="3576.55" gradientUnits="userSpaceOnUse">
<stop stop-opacity="0"/>
<stop offset="0.99"/>
</linearGradient>
<linearGradient id="paint23_linear" x1="26521.4" y1="33706.6" x2="35247.8" y2="37223.4" gradientUnits="userSpaceOnUse">
<stop stop-color="#FF573F"/>
<stop offset="0.99"/>
</linearGradient>
<linearGradient id="paint24_linear" x1="5852.29" y1="11040.5" x2="4664.31" y2="11195" gradientUnits="userSpaceOnUse">
<stop stop-color="#ECC4D7"/>
<stop offset="0.42" stop-color="#EFD4D1"/>
<stop offset="1" stop-color="#F2EAC9"/>
</linearGradient>
<clipPath id="clip0">
<rect width="609.98" height="669" fill="white"/>
</clipPath>
</defs>
</svg>
